<?xml version="1.0" standalone="no"?>
<!DOCTYPE svg PUBLIC "-//W3C//DTD SVG 20010904//EN"
 "http://www.w3.org/TR/2001/REC-SVG-20010904/DTD/svg10.dtd">
<svg version="1.0" xmlns="http://www.w3.org/2000/svg"
 width="810.000000pt" height="810.000000pt" viewBox="0 0 810.000000 810.000000"
 preserveAspectRatio="xMidYMid meet">
<metadata>
Created by potrace 1.11, written by Peter Selinger 2001-2013
</metadata>
<g transform="translate(0.000000,810.000000) scale(0.100000,-0.100000)"
fill="#000000" stroke="none">
<path d="M6295 5000 c-267 -32 -458 -203 -506 -454 -12 -64 -12 -229 1 -295
43 -226 194 -391 410 -448 87 -23 263 -23 350 0 203 53 346 187 403 378 18 61
22 98 22 214 -1 126 -3 148 -28 220 -38 108 -81 177 -150 240 -124 113 -314
168 -502 145z m182 -286 c58 -21 119 -92 140 -163 22 -77 21 -227 -3 -311 -15
-53 -27 -75 -69 -116 -43 -44 -61 -54 -109 -64 -133 -27 -249 39 -295 170 -19
53 -25 207 -12 270 40 192 176 275 348 214z"/>
<path d="M4505 4993 c-130 -16 -235 -54 -249 -89 -3 -9 -6 -231 -6 -493 l0
-478 23 -34 c46 -71 184 -109 393 -109 232 0 384 51 502 168 108 107 155 238
155 432 0 202 -50 336 -168 450 -118 113 -271 161 -499 159 -66 -1 -134 -4
-151 -6z m288 -279 c64 -22 129 -82 157 -146 35 -79 40 -230 10 -317 -27 -80
-60 -124 -119 -159 -42 -25 -55 -27 -151 -27 l-105 0 -3 333 -2 332 83 0 c50
0 102 -6 130 -16z"/>
<path d="M1265 4973 c-52 -11 -78 -28 -91 -59 -19 -44 -18 -110 2 -167 l16
-47 144 0 144 0 0 -390 c0 -416 2 -432 50 -475 19 -18 36 -20 139 -20 64 0
124 3 134 7 16 7 17 38 17 443 l0 435 108 1 c121 0 166 12 195 50 25 34 26
127 2 187 l-17 42 -412 -1 c-226 -1 -420 -3 -431 -6z"/>
<path d="M2972 4956 c-153 -39 -317 -174 -385 -316 -40 -86 -67 -195 -67 -272
0 -73 34 -206 69 -275 71 -139 217 -263 356 -302 272 -77 551 26 698 259 59
95 79 162 85 285 6 138 -7 203 -61 308 -71 138 -195 248 -336 299 -72 26 -279
34 -359 14z m465 -358 c29 -29 53 -57 53 -63 0 -17 -413 -423 -440 -433 -41
-16 -77 7 -189 122 l-105 107 62 62 62 62 68 -68 c37 -37 72 -67 77 -67 5 0
84 74 175 165 92 91 170 165 175 165 5 0 33 -23 62 -52z"/>
<path d="M3156 4290 c-66 -66 -122 -120 -126 -120 -3 0 -21 16 -40 35 -19 19
-40 35 -46 35 -30 0 -23 -25 17 -66 69 -70 80 -66 226 78 116 115 139 149 103
155 -8 1 -69 -51 -134 -117z"/>
<path d="M1565 3505 c-5 -2 -23 -6 -38 -9 -30 -7 -67 -57 -67 -92 0 -38 37
-72 98 -89 76 -22 102 -40 102 -70 0 -48 -94 -58 -162 -17 -25 15 -30 15 -38
2 -15 -23 -13 -27 33 -49 82 -40 189 -23 215 34 30 65 -2 106 -107 138 -56 17
-76 28 -82 45 -19 50 69 82 131 47 25 -13 50 -5 50 17 0 21 -102 54 -135 43z"/>
<path d="M3130 3335 l0 -175 25 0 25 0 0 175 0 175 -25 0 -25 0 0 -175z"/>
<path d="M3770 3450 c0 -57 1 -60 25 -60 22 0 25 4 25 35 l0 35 90 0 c89 0 90
0 90 25 l0 25 -115 0 -115 0 0 -60z"/>
<path d="M4950 3375 c0 -136 0 -136 23 -133 22 3 22 6 22 133 0 127 0 130 -22
133 -23 3 -23 3 -23 -133z"/>
<path d="M3370 3460 c0 -29 -4 -40 -15 -40 -8 0 -15 -9 -15 -20 0 -11 7 -20
15 -20 12 0 15 -17 15 -93 0 -111 12 -130 77 -125 31 2 39 7 41 27 3 20 0 23
-18 18 -44 -11 -50 0 -50 89 l0 84 31 0 c24 0 30 4 27 18 -2 10 -14 18 -31 20
-24 3 -27 7 -27 43 0 35 -3 39 -25 39 -22 0 -25 -4 -25 -40z"/>
<path d="M5720 3460 c0 -29 -4 -40 -15 -40 -8 0 -15 -9 -15 -20 0 -11 7 -20
15 -20 12 0 15 -16 15 -88 0 -112 13 -134 73 -130 36 3 43 7 45 27 3 20 0 23
-18 18 -44 -11 -50 0 -50 89 l0 84 31 0 c24 0 30 4 27 18 -2 10 -14 18 -31 20
-24 3 -27 7 -27 43 0 35 -3 39 -25 39 -22 0 -25 -4 -25 -40z"/>
<path d="M1902 3402 c-18 -8 -31 -21 -29 -26 4 -11 13 -11 80 0 42 7 77 -14
77 -47 0 -15 -8 -18 -47 -16 -62 2 -109 -18 -121 -51 -18 -54 21 -104 82 -104
34 0 86 21 87 36 0 6 4 1 9 -11 5 -13 18 -23 29 -23 17 0 18 6 14 88 -6 110
-17 141 -59 158 -43 18 -81 17 -122 -4z m126 -148 c3 -24 -23 -50 -60 -59 -19
-5 -32 -1 -47 14 -25 25 -26 35 -5 56 12 11 30 15 63 13 38 -2 47 -7 49 -24z"/>
<path d="M2220 3413 c0 -5 22 -63 48 -129 43 -106 51 -119 74 -122 24 -3 28 4
72 115 25 65 46 124 46 131 0 7 -8 12 -19 12 -14 0 -27 -23 -57 -105 l-38
-106 -33 88 c-18 49 -37 95 -41 103 -10 16 -52 27 -52 13z"/>
<path d="M2661 3402 c-39 -19 -71 -72 -71 -117 0 -36 30 -88 64 -110 58 -38
176 -4 176 51 0 9 -26 3 -66 -16 -51 -25 -85 -16 -109 30 l-16 30 107 0 107 0
-6 36 c-8 50 -32 83 -72 100 -45 18 -73 18 -114 -4z m114 -47 c40 -39 32 -45
-55 -45 -81 0 -81 0 -69 23 28 52 84 63 124 22z"/>
<path d="M4204 3410 c-11 -4 -33 -22 -47 -40 -22 -26 -27 -41 -27 -87 0 -51 3
-59 36 -89 34 -33 56 -39 113 -34 59 5 101 60 101 133 0 89 -93 151 -176 117z
m106 -68 c28 -35 26 -87 -5 -117 -52 -53 -125 -15 -125 64 0 44 7 56 43 74 35
18 62 12 87 -21z"/>
<path d="M4540 3290 l0 -130 25 0 c25 0 25 1 25 78 0 88 13 117 60 127 23 5
30 12 30 31 0 29 -15 30 -57 5 -31 -19 -31 -19 -36 0 -3 11 -14 19 -26 19 -20
0 -21 -5 -21 -130z"/>
<path d="M5362 3402 c-18 -8 -31 -21 -29 -26 4 -11 14 -11 88 0 30 5 39 2 53
-17 27 -39 21 -48 -31 -46 -96 4 -146 -42 -119 -107 21 -49 91 -65 141 -32 20
13 25 13 35 1 7 -8 20 -15 30 -15 16 0 18 8 13 83 -7 113 -17 142 -57 161 -42
20 -82 19 -124 -2z m126 -145 c5 -23 -22 -53 -55 -62 -52 -13 -98 49 -55 74 9
6 37 10 62 8 34 -1 46 -6 48 -20z"/>
<path d="M6041 3403 c-43 -22 -76 -89 -66 -139 8 -47 52 -93 96 -103 57 -13
139 23 139 61 0 12 -38 10 -45 -3 -22 -34 -105 -27 -125 11 -20 37 -12 40 90
40 l100 0 0 28 c0 37 -33 88 -69 107 -38 19 -77 19 -120 -2z m113 -44 c47 -37
35 -49 -49 -49 -82 0 -94 11 -53 50 28 26 68 26 102 -1z"/>
<path d="M6390 3290 l0 -130 25 0 c25 0 25 1 25 83 0 91 7 105 63 126 19 8 27
17 25 29 -5 23 -45 18 -75 -10 l-23 -21 0 26 c0 20 -5 27 -20 27 -19 0 -20 -7
-20 -130z"/>
<path d="M3770 3255 c0 -95 0 -95 25 -95 24 0 25 2 25 75 l0 75 75 0 c68 0 75
2 75 20 0 19 -7 20 -100 20 l-100 0 0 -95z"/>
<path d="M6650 3190 c0 -23 4 -30 20 -30 16 0 20 7 20 30 0 23 -4 30 -20 30
-16 0 -20 -7 -20 -30z"/>
<path d="M4950 3180 c0 -19 7 -20 120 -20 113 0 120 1 120 20 0 19 -7 20 -120
20 -113 0 -120 -1 -120 -20z"/>
</g>
</svg>
